<?xml version="1.0" encoding="utf-8"?>
<svg viewBox="13.2237 13.6 89.8955 87.7603" width="89.8955" height="87.7603" xmlns="http://www.w3.org/2000/svg">
  <defs>
    <style type="text/css">
	.st0{fill:#FFFFFF;}
	.st1{fill:#ED1B2F;}
	.st2{fill:#231F20;}
</style>
  </defs>
  <path class="st1" d="M52.8,26c-4.6,0.2-10,0.8-15.7,2.2c-1,0.3-2,0.5-3,0.8c-10.3,3-16.8,7.4-19.8,16.5c-2.5,7.6-0.5,15.8,4.5,21.6 c0.5-4.2,1.2-7.8,2.2-11.6c-2.5-3.7-3.9-8.2-3.9-12.8C33,36.9,51,38.8,65.5,48c2,1.2,4.5-0.3,4.3-2.6c-0.1-1.7-0.3-3.4-0.6-5.1 c-0.7-4.2-2-8.3-3.7-12.2c-0.4-0.9-1.2-1.5-2.2-1.6C60.4,26.1,56.8,25.9,52.8,26z M24.4,54.4c-1.3,4.5-2.3,9.7-2.8,15.6 c-0.1,1.1-0.1,2.1-0.2,3.1C21.1,83.9,23.3,91.4,31,97c6.5,4.7,14.9,5.4,21.9,2.4c-3.8-1.7-7-3.5-10.4-5.7c-4.3,1.3-9,1.2-13.4-0.3 C28.6,76.6,36,60,49.2,49.1c1.8-1.5,1.1-4.3-1.1-4.9c-1.7-0.4-3.4-0.7-5.1-1c-4.2-0.6-8.5-0.7-12.8-0.2c-1,0.1-1.8,0.7-2.2,1.6 C26.8,47.2,25.6,50.5,24.4,54.4 M42.7,90.1c3.9,2.6,8.5,5.2,14,7.5c1,0.4,1.9,0.8,2.9,1.1c10.1,3.7,17.9,3.9,25.7-1.7 c6.5-4.7,9.7-12.5,9-20.1c-2.8,3.1-5.5,5.6-8.6,8.1c-0.1,4.5-1.6,8.9-4.4,12.7c-16.2-4.7-29.7-16.9-36-32.8c-0.9-2.1-3.8-2.4-5-0.4 c-0.9,1.5-1.7,3-2.5,4.5c-1.9,3.9-3.3,7.9-4.2,12.1c-0.2,1,0.1,2,0.8,2.6C36.5,85.6,39.3,87.9,42.7,90.1 M82.3,83.8 c3.7-2.9,7.6-6.5,11.4-11c0.7-0.8,1.3-1.6,1.9-2.4c6.6-8.5,9.3-15.9,6.3-24.9c-2.5-7.6-8.9-13.1-16.3-14.8c2.1,3.7,3.6,7,5,10.7 c4.2,1.5,8,4.3,10.7,8.1c-9.5,13.9-25.2,23-42.3,24.1c-2.3,0.1-3.5,2.8-2,4.6c1.1,1.3,2.3,2.6,3.5,3.8c3.1,3,6.5,5.6,10.2,7.7 c0.8,0.5,1.9,0.5,2.7,0C76.1,88.3,79.1,86.3,82.3,83.8 M91.4,54.3c0.2,1-0.1,2-0.9,2.6c-3.2,2.8-6.7,5.3-10.5,7.3 c-1.5,0.8-3.1,1.5-4.7,2.2c-2.1,0.9-4.4-1.1-3.8-3.3c4.2-16.6,0.5-34.4-9.8-47.7c-4.4,1.4-8.2,4.1-11,7.7c-4,0.2-7.6,0.6-11.8,1.5 C43,18,50.1,13.6,58.1,13.6c9.5,0,15.7,4.8,21.8,13.7c0.6,0.8,1.1,1.7,1.7,2.6c3.1,5,5.4,9.9,6.9,14.3C89.9,48,90.8,51.5,91.4,54.3"/>
</svg>